<mxfile host="Electron" modified="2023-11-21T17:18:00.997Z" agent="Mozilla/5.0 (Macintosh; Intel Mac OS X 10_15_7) AppleWebKit/537.36 (KHTML, like Gecko) draw.io/22.0.3 Chrome/114.0.5735.289 Electron/25.8.4 Safari/537.36" etag="eWup1cMxk7HBie9Lwe-P" version="22.0.3" type="device">
  <diagram id="ooE3Xo_wV-slX8WCPOP6" name="Page-4">
    <mxGraphModel dx="1595" dy="528" grid="1" gridSize="10" guides="1" tooltips="1" connect="1" arrows="1" fold="1" page="1" pageScale="1" pageWidth="400" pageHeight="550" math="0" shadow="0">
      <root>
        <mxCell id="0" />
        <mxCell id="1" parent="0" />
        <mxCell id="hHPE4022j6eGi9Bg3FWy-431" value="" style="rounded=0;whiteSpace=wrap;html=1;" vertex="1" parent="1">
          <mxGeometry x="-510" y="44" width="50" height="376" as="geometry" />
        </mxCell>
        <mxCell id="hHPE4022j6eGi9Bg3FWy-430" value="" style="rounded=0;whiteSpace=wrap;html=1;" vertex="1" parent="1">
          <mxGeometry x="-800" y="44" width="280" height="376" as="geometry" />
        </mxCell>
        <mxCell id="hHPE4022j6eGi9Bg3FWy-93" value="" style="rounded=0;whiteSpace=wrap;html=1;fillColor=#bac8d3;strokeColor=#23445d;" vertex="1" parent="1">
          <mxGeometry x="-660" y="300" width="130" height="110" as="geometry" />
        </mxCell>
        <mxCell id="hHPE4022j6eGi9Bg3FWy-40" value="" style="rounded=0;whiteSpace=wrap;html=1;fillColor=#d0cee2;strokeColor=#56517e;" vertex="1" parent="1">
          <mxGeometry x="-660" y="240" width="130" height="60" as="geometry" />
        </mxCell>
        <mxCell id="hHPE4022j6eGi9Bg3FWy-36" value="" style="rounded=0;whiteSpace=wrap;html=1;fillColor=#FF99FF;strokeColor=#56517e;" vertex="1" parent="1">
          <mxGeometry x="-790" y="180" width="130" height="120" as="geometry" />
        </mxCell>
        <mxCell id="aXwNNv5AYdKiC4HSLwjV-165" value="" style="rounded=0;whiteSpace=wrap;html=1;fillColor=#dae8fc;strokeColor=#6c8ebf;flipH=1;" parent="1" vertex="1">
          <mxGeometry x="-790" y="80" width="260" height="100" as="geometry" />
        </mxCell>
        <mxCell id="aXwNNv5AYdKiC4HSLwjV-160" value="" style="rounded=0;whiteSpace=wrap;html=1;fillColor=#fad7ac;strokeColor=#b46504;" parent="1" vertex="1">
          <mxGeometry x="-660" y="180" width="130" height="60" as="geometry" />
        </mxCell>
        <mxCell id="hHPE4022j6eGi9Bg3FWy-27" style="edgeStyle=orthogonalEdgeStyle;rounded=1;orthogonalLoop=1;jettySize=auto;html=1;entryX=1;entryY=0.5;entryDx=0;entryDy=0;arcSize=5;endArrow=classicThin;endFill=1;fillColor=#008a00;strokeColor=#005700;" edge="1" parent="1" source="bI1gja82rUTGcYfUVD13-1" target="0xcqsg2bEBHfZzJ7icHa-70">
          <mxGeometry relative="1" as="geometry" />
        </mxCell>
        <mxCell id="bI1gja82rUTGcYfUVD13-1" value="stETH Pool" style="shape=cylinder3;whiteSpace=wrap;html=1;boundedLbl=1;backgroundOutline=1;size=7.5;strokeWidth=2;fontFamily=Times New Roman;fontStyle=0;fontSize=10;rounded=0;" parent="1" vertex="1">
          <mxGeometry x="-610" y="95" width="70" height="30" as="geometry" />
        </mxCell>
        <mxCell id="aXwNNv5AYdKiC4HSLwjV-166" value="&lt;b&gt;Lido&lt;/b&gt;" style="text;html=1;strokeColor=none;fillColor=none;align=center;verticalAlign=middle;whiteSpace=wrap;rounded=0;fontSize=8;" parent="1" vertex="1">
          <mxGeometry x="-790" y="83" width="30" height="12" as="geometry" />
        </mxCell>
        <mxCell id="aXwNNv5AYdKiC4HSLwjV-231" value="" style="group;fontSize=8;" parent="1" vertex="1" connectable="0">
          <mxGeometry x="-800" y="420" width="80" height="30" as="geometry" />
        </mxCell>
        <mxCell id="aXwNNv5AYdKiC4HSLwjV-233" value="&lt;span style=&quot;font-size: 8px;&quot;&gt;Stake / Supply&lt;/span&gt;" style="text;html=1;strokeColor=none;fillColor=none;align=center;verticalAlign=middle;whiteSpace=wrap;rounded=0;" parent="aXwNNv5AYdKiC4HSLwjV-231" vertex="1">
          <mxGeometry width="80" height="30" as="geometry" />
        </mxCell>
        <mxCell id="aXwNNv5AYdKiC4HSLwjV-232" value="" style="endArrow=classicThin;html=1;rounded=0;endFill=1;fillColor=#d80073;strokeColor=#A50040;" parent="aXwNNv5AYdKiC4HSLwjV-231" edge="1">
          <mxGeometry width="50" height="50" relative="1" as="geometry">
            <mxPoint x="10" y="24" as="sourcePoint" />
            <mxPoint x="70" y="24" as="targetPoint" />
          </mxGeometry>
        </mxCell>
        <mxCell id="hHPE4022j6eGi9Bg3FWy-31" style="edgeStyle=orthogonalEdgeStyle;rounded=1;orthogonalLoop=1;jettySize=auto;html=1;exitX=0.5;exitY=1;exitDx=0;exitDy=0;exitPerimeter=0;entryX=0;entryY=0.5;entryDx=0;entryDy=0;arcSize=5;endArrow=classicThin;endFill=1;fillColor=#008a00;strokeColor=#005700;" edge="1" parent="1" source="0xcqsg2bEBHfZzJ7icHa-75" target="_4_Hz2iEFn8rfwyZPXuo-2">
          <mxGeometry relative="1" as="geometry" />
        </mxCell>
        <mxCell id="0xcqsg2bEBHfZzJ7icHa-75" value="wstETH Pool" style="shape=cylinder3;whiteSpace=wrap;html=1;boundedLbl=1;backgroundOutline=1;size=7.5;strokeWidth=2;fontFamily=Times New Roman;fontStyle=0;fontSize=10;rounded=0;labelBorderColor=none;" parent="1" vertex="1">
          <mxGeometry x="-775" y="95" width="70" height="30" as="geometry" />
        </mxCell>
        <mxCell id="hHPE4022j6eGi9Bg3FWy-404" style="edgeStyle=orthogonalEdgeStyle;rounded=1;orthogonalLoop=1;jettySize=auto;html=1;exitX=1;exitY=0.5;exitDx=0;exitDy=0;entryX=0;entryY=1;entryDx=0;entryDy=0;arcSize=5;endArrow=classicThin;endFill=1;fillColor=#d80073;strokeColor=#A50040;" edge="1" parent="1" source="_4_Hz2iEFn8rfwyZPXuo-2" target="hHPE4022j6eGi9Bg3FWy-32">
          <mxGeometry relative="1" as="geometry">
            <Array as="points">
              <mxPoint x="-575" y="160" />
            </Array>
          </mxGeometry>
        </mxCell>
        <mxCell id="_4_Hz2iEFn8rfwyZPXuo-2" value="&lt;b&gt;wstETH&lt;/b&gt;" style="ellipse;whiteSpace=wrap;html=1;aspect=fixed;labelBackgroundColor=none;labelBorderColor=none;fillColor=#eeeeee;strokeColor=#36393d;fontSize=10;fontFamily=Times New Roman;rounded=0;" parent="1" vertex="1">
          <mxGeometry x="-680" y="140" width="40" height="40" as="geometry" />
        </mxCell>
        <mxCell id="0xcqsg2bEBHfZzJ7icHa-70" value="&lt;b style=&quot;font-size: 10px;&quot;&gt;stETH&lt;/b&gt;" style="ellipse;whiteSpace=wrap;html=1;aspect=fixed;labelBackgroundColor=none;labelBorderColor=none;fillColor=#eeeeee;strokeColor=#36393d;fontSize=10;fontFamily=Times New Roman;rounded=0;" parent="1" vertex="1">
          <mxGeometry x="-680" y="90" width="40" height="40" as="geometry" />
        </mxCell>
        <mxCell id="_4_Hz2iEFn8rfwyZPXuo-1" value="&lt;b style=&quot;font-size: 10px;&quot;&gt;ETH&lt;/b&gt;" style="ellipse;whiteSpace=wrap;html=1;aspect=fixed;labelBackgroundColor=none;labelBorderColor=none;fillColor=#eeeeee;strokeColor=#36393d;fontSize=10;fontFamily=Times New Roman;rounded=0;" parent="1" vertex="1">
          <mxGeometry x="-680" y="47" width="40" height="40" as="geometry" />
        </mxCell>
        <mxCell id="_4_Hz2iEFn8rfwyZPXuo-3" value="&lt;b&gt;DAI&lt;/b&gt;" style="ellipse;whiteSpace=wrap;html=1;aspect=fixed;labelBackgroundColor=none;labelBorderColor=none;fillColor=#eeeeee;strokeColor=#36393d;fontSize=10;fontFamily=Times New Roman;rounded=0;" parent="1" vertex="1">
          <mxGeometry x="-680" y="190" width="40" height="40" as="geometry" />
        </mxCell>
        <mxCell id="hHPE4022j6eGi9Bg3FWy-28" style="edgeStyle=orthogonalEdgeStyle;rounded=1;orthogonalLoop=1;jettySize=auto;html=1;entryX=1;entryY=0.5;entryDx=0;entryDy=0;entryPerimeter=0;arcSize=5;endArrow=classicThin;endFill=1;fillColor=#d80073;strokeColor=#A50040;" edge="1" parent="1" source="0xcqsg2bEBHfZzJ7icHa-70" target="0xcqsg2bEBHfZzJ7icHa-75">
          <mxGeometry relative="1" as="geometry" />
        </mxCell>
        <mxCell id="hHPE4022j6eGi9Bg3FWy-32" value="&lt;b&gt;MakerDAO&lt;/b&gt;" style="text;html=1;strokeColor=none;fillColor=none;align=center;verticalAlign=middle;whiteSpace=wrap;rounded=0;fontSize=8;" vertex="1" parent="1">
          <mxGeometry x="-575" y="182" width="50" height="12" as="geometry" />
        </mxCell>
        <mxCell id="hHPE4022j6eGi9Bg3FWy-35" style="edgeStyle=orthogonalEdgeStyle;rounded=1;orthogonalLoop=1;jettySize=auto;html=1;exitX=0;exitY=0.5;exitDx=0;exitDy=0;exitPerimeter=0;entryX=1;entryY=0.5;entryDx=0;entryDy=0;arcSize=5;endArrow=classicThin;endFill=1;fillColor=#1ba1e2;strokeColor=#006EAF;" edge="1" parent="1" source="hHPE4022j6eGi9Bg3FWy-33" target="_4_Hz2iEFn8rfwyZPXuo-3">
          <mxGeometry relative="1" as="geometry" />
        </mxCell>
        <mxCell id="hHPE4022j6eGi9Bg3FWy-33" value="wstETH Vault" style="shape=cylinder3;whiteSpace=wrap;html=1;boundedLbl=1;backgroundOutline=1;size=7.5;strokeWidth=2;fontFamily=Times New Roman;fontStyle=0;fontSize=10;rounded=0;" vertex="1" parent="1">
          <mxGeometry x="-610" y="195" width="70" height="30" as="geometry" />
        </mxCell>
        <mxCell id="hHPE4022j6eGi9Bg3FWy-38" value="&lt;b&gt;Aave&lt;/b&gt;" style="text;html=1;strokeColor=none;fillColor=none;align=center;verticalAlign=middle;whiteSpace=wrap;rounded=0;fontSize=8;" vertex="1" parent="1">
          <mxGeometry x="-790" y="183" width="30" height="12" as="geometry" />
        </mxCell>
        <mxCell id="hHPE4022j6eGi9Bg3FWy-79" style="edgeStyle=orthogonalEdgeStyle;rounded=1;orthogonalLoop=1;jettySize=auto;html=1;exitX=0.5;exitY=1;exitDx=0;exitDy=0;exitPerimeter=0;entryX=0.5;entryY=0;entryDx=0;entryDy=0;arcSize=5;endArrow=classicThin;endFill=1;fillColor=#008a00;strokeColor=#005700;" edge="1" parent="1" source="hHPE4022j6eGi9Bg3FWy-39" target="hHPE4022j6eGi9Bg3FWy-41">
          <mxGeometry relative="1" as="geometry">
            <Array as="points">
              <mxPoint x="-740" y="235" />
              <mxPoint x="-660" y="235" />
            </Array>
          </mxGeometry>
        </mxCell>
        <mxCell id="hHPE4022j6eGi9Bg3FWy-39" value="DAI Pool" style="shape=cylinder3;whiteSpace=wrap;html=1;boundedLbl=1;backgroundOutline=1;size=7.5;strokeWidth=2;fontFamily=Times New Roman;fontStyle=0;fontSize=10;rounded=0;" vertex="1" parent="1">
          <mxGeometry x="-775" y="195" width="70" height="30" as="geometry" />
        </mxCell>
        <mxCell id="hHPE4022j6eGi9Bg3FWy-41" value="&lt;b&gt;aDAI&lt;/b&gt;" style="ellipse;whiteSpace=wrap;html=1;aspect=fixed;labelBackgroundColor=none;labelBorderColor=none;fillColor=#eeeeee;strokeColor=#36393d;fontSize=10;fontFamily=Times New Roman;rounded=0;" vertex="1" parent="1">
          <mxGeometry x="-680" y="250" width="40" height="40" as="geometry" />
        </mxCell>
        <mxCell id="hHPE4022j6eGi9Bg3FWy-42" style="edgeStyle=orthogonalEdgeStyle;rounded=1;orthogonalLoop=1;jettySize=auto;html=1;entryX=1;entryY=0.5;entryDx=0;entryDy=0;entryPerimeter=0;arcSize=5;endArrow=classicThin;endFill=1;fillColor=#d80073;strokeColor=#A50040;" edge="1" parent="1" source="_4_Hz2iEFn8rfwyZPXuo-3" target="hHPE4022j6eGi9Bg3FWy-39">
          <mxGeometry relative="1" as="geometry" />
        </mxCell>
        <mxCell id="hHPE4022j6eGi9Bg3FWy-48" value="aave" style="shape=cylinder3;whiteSpace=wrap;html=1;boundedLbl=1;backgroundOutline=1;size=7.5;strokeWidth=2;fontFamily=Times New Roman;fontStyle=0;fontSize=10;rounded=0;" vertex="1" parent="1">
          <mxGeometry x="-610" y="255" width="70" height="30" as="geometry" />
        </mxCell>
        <mxCell id="hHPE4022j6eGi9Bg3FWy-55" style="edgeStyle=orthogonalEdgeStyle;rounded=1;orthogonalLoop=1;jettySize=auto;html=1;exitX=1;exitY=0.5;exitDx=0;exitDy=0;entryX=0;entryY=0.5;entryDx=0;entryDy=0;entryPerimeter=0;arcSize=5;endArrow=classicThin;endFill=1;fillColor=#d80073;strokeColor=#A50040;" edge="1" parent="1" source="hHPE4022j6eGi9Bg3FWy-41" target="hHPE4022j6eGi9Bg3FWy-48">
          <mxGeometry relative="1" as="geometry" />
        </mxCell>
        <mxCell id="hHPE4022j6eGi9Bg3FWy-56" value="&lt;b&gt;Curve&lt;/b&gt;" style="text;html=1;strokeColor=none;fillColor=none;align=center;verticalAlign=middle;whiteSpace=wrap;rounded=0;fontSize=8;" vertex="1" parent="1">
          <mxGeometry x="-565" y="243" width="30" height="12" as="geometry" />
        </mxCell>
        <mxCell id="hHPE4022j6eGi9Bg3FWy-111" style="edgeStyle=orthogonalEdgeStyle;rounded=1;orthogonalLoop=1;jettySize=auto;html=1;exitX=1;exitY=0.5;exitDx=0;exitDy=0;exitPerimeter=0;entryX=0.5;entryY=0;entryDx=0;entryDy=0;arcSize=5;endArrow=classicThin;endFill=1;fillColor=#1ba1e2;strokeColor=#006EAF;" edge="1" parent="1" source="hHPE4022j6eGi9Bg3FWy-57" target="hHPE4022j6eGi9Bg3FWy-63">
          <mxGeometry relative="1" as="geometry" />
        </mxCell>
        <mxCell id="hHPE4022j6eGi9Bg3FWy-57" value="ETH Pool" style="shape=cylinder3;whiteSpace=wrap;html=1;boundedLbl=1;backgroundOutline=1;size=7.5;strokeWidth=2;fontFamily=Times New Roman;fontStyle=0;fontSize=10;rounded=0;" vertex="1" parent="1">
          <mxGeometry x="-775" y="255" width="70" height="30" as="geometry" />
        </mxCell>
        <mxCell id="hHPE4022j6eGi9Bg3FWy-60" value="" style="rounded=0;whiteSpace=wrap;html=1;fillColor=#fad9d5;strokeColor=#ae4132;" vertex="1" parent="1">
          <mxGeometry x="-790" y="300" width="130" height="110" as="geometry" />
        </mxCell>
        <mxCell id="hHPE4022j6eGi9Bg3FWy-61" value="&lt;b&gt;Uniswap&lt;/b&gt;" style="text;html=1;strokeColor=none;fillColor=none;align=center;verticalAlign=middle;whiteSpace=wrap;rounded=0;fontSize=8;" vertex="1" parent="1">
          <mxGeometry x="-790" y="398" width="40" height="12" as="geometry" />
        </mxCell>
        <mxCell id="hHPE4022j6eGi9Bg3FWy-362" style="edgeStyle=orthogonalEdgeStyle;rounded=1;orthogonalLoop=1;jettySize=auto;html=1;exitX=0;exitY=0.5;exitDx=0;exitDy=0;exitPerimeter=0;entryX=0;entryY=1;entryDx=0;entryDy=0;arcSize=5;endArrow=classicThin;endFill=1;" edge="1" parent="1" source="hHPE4022j6eGi9Bg3FWy-62" target="hHPE4022j6eGi9Bg3FWy-73">
          <mxGeometry relative="1" as="geometry">
            <Array as="points">
              <mxPoint x="-786" y="380" />
            </Array>
          </mxGeometry>
        </mxCell>
        <mxCell id="hHPE4022j6eGi9Bg3FWy-62" value="ETH-DAI Pool" style="shape=cylinder3;whiteSpace=wrap;html=1;boundedLbl=1;backgroundOutline=1;size=7.5;strokeWidth=2;fontFamily=Times New Roman;fontStyle=0;fontSize=10;rounded=0;" vertex="1" parent="1">
          <mxGeometry x="-775" y="365" width="70" height="30" as="geometry" />
        </mxCell>
        <mxCell id="hHPE4022j6eGi9Bg3FWy-63" value="&lt;b style=&quot;font-size: 10px;&quot;&gt;ETH&lt;/b&gt;" style="ellipse;whiteSpace=wrap;html=1;aspect=fixed;labelBackgroundColor=none;labelBorderColor=none;fillColor=#eeeeee;strokeColor=#36393d;fontSize=10;fontFamily=Times New Roman;rounded=0;" vertex="1" parent="1">
          <mxGeometry x="-705" y="285" width="30" height="30" as="geometry" />
        </mxCell>
        <mxCell id="hHPE4022j6eGi9Bg3FWy-73" value="&lt;b style=&quot;font-size: 10px;&quot;&gt;DAI&lt;/b&gt;" style="ellipse;whiteSpace=wrap;html=1;aspect=fixed;labelBackgroundColor=none;labelBorderColor=none;fillColor=#eeeeee;strokeColor=#36393d;fontSize=10;fontFamily=Times New Roman;rounded=0;" vertex="1" parent="1">
          <mxGeometry x="-790" y="285" width="30" height="30" as="geometry" />
        </mxCell>
        <mxCell id="hHPE4022j6eGi9Bg3FWy-76" value="&lt;b&gt;a3CRV&lt;/b&gt;" style="ellipse;whiteSpace=wrap;html=1;aspect=fixed;labelBackgroundColor=none;labelBorderColor=none;fillColor=#eeeeee;strokeColor=#36393d;fontSize=10;fontFamily=Times New Roman;rounded=0;" vertex="1" parent="1">
          <mxGeometry x="-680" y="310" width="40" height="40" as="geometry" />
        </mxCell>
        <mxCell id="hHPE4022j6eGi9Bg3FWy-94" style="edgeStyle=orthogonalEdgeStyle;rounded=1;orthogonalLoop=1;jettySize=auto;html=1;exitX=0.5;exitY=1;exitDx=0;exitDy=0;exitPerimeter=0;entryX=0.5;entryY=0;entryDx=0;entryDy=0;arcSize=5;endArrow=classicThin;endFill=1;fillColor=#008a00;strokeColor=#005700;" edge="1" parent="1" source="hHPE4022j6eGi9Bg3FWy-48" target="hHPE4022j6eGi9Bg3FWy-76">
          <mxGeometry relative="1" as="geometry">
            <Array as="points">
              <mxPoint x="-575" y="295" />
              <mxPoint x="-660" y="295" />
            </Array>
          </mxGeometry>
        </mxCell>
        <mxCell id="hHPE4022j6eGi9Bg3FWy-357" style="edgeStyle=orthogonalEdgeStyle;rounded=1;orthogonalLoop=1;jettySize=auto;html=1;entryX=1;entryY=0.5;entryDx=0;entryDy=0;arcSize=5;endArrow=classicThin;endFill=1;fillColor=#008a00;strokeColor=#005700;" edge="1" parent="1" source="hHPE4022j6eGi9Bg3FWy-95" target="hHPE4022j6eGi9Bg3FWy-98">
          <mxGeometry relative="1" as="geometry" />
        </mxCell>
        <mxCell id="hHPE4022j6eGi9Bg3FWy-95" value="aave" style="shape=cylinder3;whiteSpace=wrap;html=1;boundedLbl=1;backgroundOutline=1;size=7.5;strokeWidth=2;fontFamily=Times New Roman;fontStyle=0;fontSize=10;rounded=0;" vertex="1" parent="1">
          <mxGeometry x="-610" y="365" width="70" height="30" as="geometry" />
        </mxCell>
        <mxCell id="hHPE4022j6eGi9Bg3FWy-96" value="&lt;b&gt;Convex&lt;/b&gt;" style="text;html=1;strokeColor=none;fillColor=none;align=center;verticalAlign=middle;whiteSpace=wrap;rounded=0;fontSize=8;" vertex="1" parent="1">
          <mxGeometry x="-565" y="300" width="30" height="12" as="geometry" />
        </mxCell>
        <mxCell id="hHPE4022j6eGi9Bg3FWy-98" value="&lt;b style=&quot;font-size: 8px;&quot;&gt;cvxa3CRV&lt;/b&gt;" style="ellipse;whiteSpace=wrap;html=1;aspect=fixed;labelBackgroundColor=none;labelBorderColor=none;fillColor=#eeeeee;strokeColor=#36393d;fontSize=10;fontFamily=Times New Roman;rounded=0;" vertex="1" parent="1">
          <mxGeometry x="-680" y="360" width="40" height="40" as="geometry" />
        </mxCell>
        <mxCell id="hHPE4022j6eGi9Bg3FWy-112" style="edgeStyle=orthogonalEdgeStyle;rounded=1;orthogonalLoop=1;jettySize=auto;html=1;exitX=0.5;exitY=1;exitDx=0;exitDy=0;entryX=1;entryY=0.5;entryDx=0;entryDy=0;entryPerimeter=0;arcSize=5;endArrow=classicThin;endFill=1;" edge="1" parent="1" source="hHPE4022j6eGi9Bg3FWy-63" target="hHPE4022j6eGi9Bg3FWy-62">
          <mxGeometry relative="1" as="geometry">
            <Array as="points">
              <mxPoint x="-690" y="380" />
            </Array>
          </mxGeometry>
        </mxCell>
        <mxCell id="hHPE4022j6eGi9Bg3FWy-129" style="edgeStyle=orthogonalEdgeStyle;rounded=1;orthogonalLoop=1;jettySize=auto;html=1;exitX=0;exitY=0;exitDx=0;exitDy=0;entryX=0;entryY=0.5;entryDx=0;entryDy=0;entryPerimeter=0;arcSize=5;endArrow=classicThin;endFill=1;fillColor=#d80073;strokeColor=#A50040;" edge="1" parent="1" source="hHPE4022j6eGi9Bg3FWy-73" target="hHPE4022j6eGi9Bg3FWy-39">
          <mxGeometry relative="1" as="geometry">
            <Array as="points">
              <mxPoint x="-786" y="255" />
              <mxPoint x="-786" y="210" />
            </Array>
          </mxGeometry>
        </mxCell>
        <mxCell id="hHPE4022j6eGi9Bg3FWy-432" style="edgeStyle=orthogonalEdgeStyle;rounded=0;orthogonalLoop=1;jettySize=auto;html=1;exitX=0.5;exitY=0;exitDx=0;exitDy=0;" edge="1" parent="1" source="hHPE4022j6eGi9Bg3FWy-130" target="hHPE4022j6eGi9Bg3FWy-134">
          <mxGeometry relative="1" as="geometry" />
        </mxCell>
        <mxCell id="hHPE4022j6eGi9Bg3FWy-130" value="&lt;br&gt;&lt;font style=&quot;font-size: 8px;&quot;&gt;Lido&lt;br&gt;Validator&lt;/font&gt;" style="shape=actor;whiteSpace=wrap;html=1;fontSize=10;fontFamily=Times New Roman;verticalAlign=middle;rounded=0;" vertex="1" parent="1">
          <mxGeometry x="-502.39000000000004" y="360" width="35" height="40" as="geometry" />
        </mxCell>
        <mxCell id="hHPE4022j6eGi9Bg3FWy-134" value="" style="sketch=0;outlineConnect=0;fontColor=#232F3E;gradientColor=none;fillColor=#000000;strokeColor=default;dashed=0;verticalLabelPosition=bottom;verticalAlign=top;align=center;html=1;fontSize=12;fontStyle=0;aspect=fixed;pointerEvents=1;shape=mxgraph.aws4.vault;" vertex="1" parent="1">
          <mxGeometry x="-500" y="187" width="30.21" height="38" as="geometry" />
        </mxCell>
        <mxCell id="hHPE4022j6eGi9Bg3FWy-258" value="" style="group" vertex="1" connectable="0" parent="1">
          <mxGeometry x="-502" y="275" width="34" height="40" as="geometry" />
        </mxCell>
        <mxCell id="hHPE4022j6eGi9Bg3FWy-182" value="" style="group" vertex="1" connectable="0" parent="hHPE4022j6eGi9Bg3FWy-258">
          <mxGeometry width="20" height="31" as="geometry" />
        </mxCell>
        <mxCell id="hHPE4022j6eGi9Bg3FWy-148" value="" style="shape=cylinder3;whiteSpace=wrap;html=1;boundedLbl=1;backgroundOutline=1;size=3.250000000000057;" vertex="1" parent="hHPE4022j6eGi9Bg3FWy-182">
          <mxGeometry x="0.20999999999997954" y="21" width="19.79" height="10" as="geometry" />
        </mxCell>
        <mxCell id="hHPE4022j6eGi9Bg3FWy-149" value="" style="shape=cylinder3;whiteSpace=wrap;html=1;boundedLbl=1;backgroundOutline=1;size=3.250000000000057;" vertex="1" parent="hHPE4022j6eGi9Bg3FWy-182">
          <mxGeometry x="0.20999999999997954" y="18" width="19.79" height="10" as="geometry" />
        </mxCell>
        <mxCell id="hHPE4022j6eGi9Bg3FWy-151" value="" style="shape=cylinder3;whiteSpace=wrap;html=1;boundedLbl=1;backgroundOutline=1;size=3.250000000000057;" vertex="1" parent="hHPE4022j6eGi9Bg3FWy-182">
          <mxGeometry x="0.20999999999997954" y="15" width="19.79" height="10" as="geometry" />
        </mxCell>
        <mxCell id="hHPE4022j6eGi9Bg3FWy-152" value="" style="shape=cylinder3;whiteSpace=wrap;html=1;boundedLbl=1;backgroundOutline=1;size=3.250000000000057;" vertex="1" parent="hHPE4022j6eGi9Bg3FWy-182">
          <mxGeometry y="12" width="19.79" height="10" as="geometry" />
        </mxCell>
        <mxCell id="hHPE4022j6eGi9Bg3FWy-154" value="" style="shape=cylinder3;whiteSpace=wrap;html=1;boundedLbl=1;backgroundOutline=1;size=3.250000000000057;" vertex="1" parent="hHPE4022j6eGi9Bg3FWy-182">
          <mxGeometry y="9" width="19.79" height="10" as="geometry" />
        </mxCell>
        <mxCell id="hHPE4022j6eGi9Bg3FWy-155" value="" style="shape=cylinder3;whiteSpace=wrap;html=1;boundedLbl=1;backgroundOutline=1;size=3.250000000000057;" vertex="1" parent="hHPE4022j6eGi9Bg3FWy-182">
          <mxGeometry x="0.20999999999997954" y="6" width="19.79" height="10" as="geometry" />
        </mxCell>
        <mxCell id="hHPE4022j6eGi9Bg3FWy-156" value="" style="shape=cylinder3;whiteSpace=wrap;html=1;boundedLbl=1;backgroundOutline=1;size=3.250000000000057;" vertex="1" parent="hHPE4022j6eGi9Bg3FWy-182">
          <mxGeometry x="0.20999999999997954" y="3" width="19.79" height="10" as="geometry" />
        </mxCell>
        <mxCell id="hHPE4022j6eGi9Bg3FWy-157" value="" style="shape=cylinder3;whiteSpace=wrap;html=1;boundedLbl=1;backgroundOutline=1;size=3.250000000000057;" vertex="1" parent="hHPE4022j6eGi9Bg3FWy-182">
          <mxGeometry x="0.20999999999997954" width="19.79" height="10" as="geometry" />
        </mxCell>
        <mxCell id="hHPE4022j6eGi9Bg3FWy-231" value="" style="group" vertex="1" connectable="0" parent="hHPE4022j6eGi9Bg3FWy-258">
          <mxGeometry x="4.5" y="3" width="20" height="31" as="geometry" />
        </mxCell>
        <mxCell id="hHPE4022j6eGi9Bg3FWy-232" value="" style="shape=cylinder3;whiteSpace=wrap;html=1;boundedLbl=1;backgroundOutline=1;size=3.250000000000057;" vertex="1" parent="hHPE4022j6eGi9Bg3FWy-231">
          <mxGeometry x="0.20999999999997954" y="21" width="19.79" height="10" as="geometry" />
        </mxCell>
        <mxCell id="hHPE4022j6eGi9Bg3FWy-233" value="" style="shape=cylinder3;whiteSpace=wrap;html=1;boundedLbl=1;backgroundOutline=1;size=3.250000000000057;" vertex="1" parent="hHPE4022j6eGi9Bg3FWy-231">
          <mxGeometry x="0.20999999999997954" y="18" width="19.79" height="10" as="geometry" />
        </mxCell>
        <mxCell id="hHPE4022j6eGi9Bg3FWy-234" value="" style="shape=cylinder3;whiteSpace=wrap;html=1;boundedLbl=1;backgroundOutline=1;size=3.250000000000057;" vertex="1" parent="hHPE4022j6eGi9Bg3FWy-231">
          <mxGeometry x="0.20999999999997954" y="15" width="19.79" height="10" as="geometry" />
        </mxCell>
        <mxCell id="hHPE4022j6eGi9Bg3FWy-235" value="" style="shape=cylinder3;whiteSpace=wrap;html=1;boundedLbl=1;backgroundOutline=1;size=3.250000000000057;" vertex="1" parent="hHPE4022j6eGi9Bg3FWy-231">
          <mxGeometry y="12" width="19.79" height="10" as="geometry" />
        </mxCell>
        <mxCell id="hHPE4022j6eGi9Bg3FWy-236" value="" style="shape=cylinder3;whiteSpace=wrap;html=1;boundedLbl=1;backgroundOutline=1;size=3.250000000000057;" vertex="1" parent="hHPE4022j6eGi9Bg3FWy-231">
          <mxGeometry y="9" width="19.79" height="10" as="geometry" />
        </mxCell>
        <mxCell id="hHPE4022j6eGi9Bg3FWy-237" value="" style="shape=cylinder3;whiteSpace=wrap;html=1;boundedLbl=1;backgroundOutline=1;size=3.250000000000057;" vertex="1" parent="hHPE4022j6eGi9Bg3FWy-231">
          <mxGeometry x="0.20999999999997954" y="6" width="19.79" height="10" as="geometry" />
        </mxCell>
        <mxCell id="hHPE4022j6eGi9Bg3FWy-238" value="" style="shape=cylinder3;whiteSpace=wrap;html=1;boundedLbl=1;backgroundOutline=1;size=3.250000000000057;" vertex="1" parent="hHPE4022j6eGi9Bg3FWy-231">
          <mxGeometry x="0.20999999999997954" y="3" width="19.79" height="10" as="geometry" />
        </mxCell>
        <mxCell id="hHPE4022j6eGi9Bg3FWy-239" value="" style="shape=cylinder3;whiteSpace=wrap;html=1;boundedLbl=1;backgroundOutline=1;size=3.250000000000057;" vertex="1" parent="hHPE4022j6eGi9Bg3FWy-231">
          <mxGeometry x="0.20999999999997954" width="19.79" height="10" as="geometry" />
        </mxCell>
        <mxCell id="hHPE4022j6eGi9Bg3FWy-240" value="" style="group" vertex="1" connectable="0" parent="hHPE4022j6eGi9Bg3FWy-258">
          <mxGeometry x="9" y="6" width="20" height="31" as="geometry" />
        </mxCell>
        <mxCell id="hHPE4022j6eGi9Bg3FWy-241" value="" style="shape=cylinder3;whiteSpace=wrap;html=1;boundedLbl=1;backgroundOutline=1;size=3.250000000000057;" vertex="1" parent="hHPE4022j6eGi9Bg3FWy-240">
          <mxGeometry x="0.20999999999997954" y="21" width="19.79" height="10" as="geometry" />
        </mxCell>
        <mxCell id="hHPE4022j6eGi9Bg3FWy-242" value="" style="shape=cylinder3;whiteSpace=wrap;html=1;boundedLbl=1;backgroundOutline=1;size=3.250000000000057;" vertex="1" parent="hHPE4022j6eGi9Bg3FWy-240">
          <mxGeometry x="0.20999999999997954" y="18" width="19.79" height="10" as="geometry" />
        </mxCell>
        <mxCell id="hHPE4022j6eGi9Bg3FWy-243" value="" style="shape=cylinder3;whiteSpace=wrap;html=1;boundedLbl=1;backgroundOutline=1;size=3.250000000000057;" vertex="1" parent="hHPE4022j6eGi9Bg3FWy-240">
          <mxGeometry x="0.20999999999997954" y="15" width="19.79" height="10" as="geometry" />
        </mxCell>
        <mxCell id="hHPE4022j6eGi9Bg3FWy-244" value="" style="shape=cylinder3;whiteSpace=wrap;html=1;boundedLbl=1;backgroundOutline=1;size=3.250000000000057;" vertex="1" parent="hHPE4022j6eGi9Bg3FWy-240">
          <mxGeometry y="12" width="19.79" height="10" as="geometry" />
        </mxCell>
        <mxCell id="hHPE4022j6eGi9Bg3FWy-245" value="" style="shape=cylinder3;whiteSpace=wrap;html=1;boundedLbl=1;backgroundOutline=1;size=3.250000000000057;" vertex="1" parent="hHPE4022j6eGi9Bg3FWy-240">
          <mxGeometry y="9" width="19.79" height="10" as="geometry" />
        </mxCell>
        <mxCell id="hHPE4022j6eGi9Bg3FWy-246" value="" style="shape=cylinder3;whiteSpace=wrap;html=1;boundedLbl=1;backgroundOutline=1;size=3.250000000000057;" vertex="1" parent="hHPE4022j6eGi9Bg3FWy-240">
          <mxGeometry x="0.20999999999997954" y="6" width="19.79" height="10" as="geometry" />
        </mxCell>
        <mxCell id="hHPE4022j6eGi9Bg3FWy-247" value="" style="shape=cylinder3;whiteSpace=wrap;html=1;boundedLbl=1;backgroundOutline=1;size=3.250000000000057;" vertex="1" parent="hHPE4022j6eGi9Bg3FWy-240">
          <mxGeometry x="0.20999999999997954" y="3" width="19.79" height="10" as="geometry" />
        </mxCell>
        <mxCell id="hHPE4022j6eGi9Bg3FWy-248" value="" style="shape=cylinder3;whiteSpace=wrap;html=1;boundedLbl=1;backgroundOutline=1;size=3.250000000000057;" vertex="1" parent="hHPE4022j6eGi9Bg3FWy-240">
          <mxGeometry x="0.20999999999997954" width="19.79" height="10" as="geometry" />
        </mxCell>
        <mxCell id="hHPE4022j6eGi9Bg3FWy-249" value="" style="group" vertex="1" connectable="0" parent="hHPE4022j6eGi9Bg3FWy-258">
          <mxGeometry x="14" y="9" width="20" height="31" as="geometry" />
        </mxCell>
        <mxCell id="hHPE4022j6eGi9Bg3FWy-250" value="" style="shape=cylinder3;whiteSpace=wrap;html=1;boundedLbl=1;backgroundOutline=1;size=3.250000000000057;" vertex="1" parent="hHPE4022j6eGi9Bg3FWy-249">
          <mxGeometry x="0.20999999999997954" y="21" width="19.79" height="10" as="geometry" />
        </mxCell>
        <mxCell id="hHPE4022j6eGi9Bg3FWy-251" value="" style="shape=cylinder3;whiteSpace=wrap;html=1;boundedLbl=1;backgroundOutline=1;size=3.250000000000057;" vertex="1" parent="hHPE4022j6eGi9Bg3FWy-249">
          <mxGeometry x="0.20999999999997954" y="18" width="19.79" height="10" as="geometry" />
        </mxCell>
        <mxCell id="hHPE4022j6eGi9Bg3FWy-252" value="" style="shape=cylinder3;whiteSpace=wrap;html=1;boundedLbl=1;backgroundOutline=1;size=3.250000000000057;" vertex="1" parent="hHPE4022j6eGi9Bg3FWy-249">
          <mxGeometry x="0.20999999999997954" y="15" width="19.79" height="10" as="geometry" />
        </mxCell>
        <mxCell id="hHPE4022j6eGi9Bg3FWy-253" value="" style="shape=cylinder3;whiteSpace=wrap;html=1;boundedLbl=1;backgroundOutline=1;size=3.250000000000057;" vertex="1" parent="hHPE4022j6eGi9Bg3FWy-249">
          <mxGeometry y="12" width="19.79" height="10" as="geometry" />
        </mxCell>
        <mxCell id="hHPE4022j6eGi9Bg3FWy-254" value="" style="shape=cylinder3;whiteSpace=wrap;html=1;boundedLbl=1;backgroundOutline=1;size=3.250000000000057;" vertex="1" parent="hHPE4022j6eGi9Bg3FWy-249">
          <mxGeometry y="9" width="19.79" height="10" as="geometry" />
        </mxCell>
        <mxCell id="hHPE4022j6eGi9Bg3FWy-255" value="" style="shape=cylinder3;whiteSpace=wrap;html=1;boundedLbl=1;backgroundOutline=1;size=3.250000000000057;" vertex="1" parent="hHPE4022j6eGi9Bg3FWy-249">
          <mxGeometry x="0.20999999999997954" y="6" width="19.79" height="10" as="geometry" />
        </mxCell>
        <mxCell id="hHPE4022j6eGi9Bg3FWy-256" value="" style="shape=cylinder3;whiteSpace=wrap;html=1;boundedLbl=1;backgroundOutline=1;size=3.250000000000057;" vertex="1" parent="hHPE4022j6eGi9Bg3FWy-249">
          <mxGeometry x="0.20999999999997954" y="3" width="19.79" height="10" as="geometry" />
        </mxCell>
        <mxCell id="hHPE4022j6eGi9Bg3FWy-257" value="" style="shape=cylinder3;whiteSpace=wrap;html=1;boundedLbl=1;backgroundOutline=1;size=3.250000000000057;" vertex="1" parent="hHPE4022j6eGi9Bg3FWy-249">
          <mxGeometry x="0.20999999999997954" width="19.79" height="10" as="geometry" />
        </mxCell>
        <mxCell id="hHPE4022j6eGi9Bg3FWy-356" style="edgeStyle=orthogonalEdgeStyle;rounded=1;orthogonalLoop=1;jettySize=auto;html=1;exitX=1;exitY=0.5;exitDx=0;exitDy=0;entryX=0.5;entryY=0;entryDx=0;entryDy=0;entryPerimeter=0;arcSize=5;endArrow=classicThin;endFill=1;fillColor=#d80073;strokeColor=#A50040;" edge="1" parent="1" source="hHPE4022j6eGi9Bg3FWy-76" target="hHPE4022j6eGi9Bg3FWy-95">
          <mxGeometry relative="1" as="geometry" />
        </mxCell>
        <mxCell id="hHPE4022j6eGi9Bg3FWy-365" value="" style="group" vertex="1" connectable="0" parent="1">
          <mxGeometry x="-523" y="54" width="34" height="40" as="geometry" />
        </mxCell>
        <mxCell id="hHPE4022j6eGi9Bg3FWy-366" value="" style="group" vertex="1" connectable="0" parent="hHPE4022j6eGi9Bg3FWy-365">
          <mxGeometry width="20" height="31" as="geometry" />
        </mxCell>
        <mxCell id="hHPE4022j6eGi9Bg3FWy-367" value="" style="shape=cylinder3;whiteSpace=wrap;html=1;boundedLbl=1;backgroundOutline=1;size=3.250000000000057;" vertex="1" parent="hHPE4022j6eGi9Bg3FWy-366">
          <mxGeometry x="0.20999999999997954" y="21" width="19.79" height="10" as="geometry" />
        </mxCell>
        <mxCell id="hHPE4022j6eGi9Bg3FWy-368" value="" style="shape=cylinder3;whiteSpace=wrap;html=1;boundedLbl=1;backgroundOutline=1;size=3.250000000000057;" vertex="1" parent="hHPE4022j6eGi9Bg3FWy-366">
          <mxGeometry x="0.20999999999997954" y="18" width="19.79" height="10" as="geometry" />
        </mxCell>
        <mxCell id="hHPE4022j6eGi9Bg3FWy-369" value="" style="shape=cylinder3;whiteSpace=wrap;html=1;boundedLbl=1;backgroundOutline=1;size=3.250000000000057;" vertex="1" parent="hHPE4022j6eGi9Bg3FWy-366">
          <mxGeometry x="0.20999999999997954" y="15" width="19.79" height="10" as="geometry" />
        </mxCell>
        <mxCell id="hHPE4022j6eGi9Bg3FWy-370" value="" style="shape=cylinder3;whiteSpace=wrap;html=1;boundedLbl=1;backgroundOutline=1;size=3.250000000000057;" vertex="1" parent="hHPE4022j6eGi9Bg3FWy-366">
          <mxGeometry y="12" width="19.79" height="10" as="geometry" />
        </mxCell>
        <mxCell id="hHPE4022j6eGi9Bg3FWy-371" value="" style="shape=cylinder3;whiteSpace=wrap;html=1;boundedLbl=1;backgroundOutline=1;size=3.250000000000057;" vertex="1" parent="hHPE4022j6eGi9Bg3FWy-366">
          <mxGeometry y="9" width="19.79" height="10" as="geometry" />
        </mxCell>
        <mxCell id="hHPE4022j6eGi9Bg3FWy-372" value="" style="shape=cylinder3;whiteSpace=wrap;html=1;boundedLbl=1;backgroundOutline=1;size=3.250000000000057;" vertex="1" parent="hHPE4022j6eGi9Bg3FWy-366">
          <mxGeometry x="0.20999999999997954" y="6" width="19.79" height="10" as="geometry" />
        </mxCell>
        <mxCell id="hHPE4022j6eGi9Bg3FWy-373" value="" style="shape=cylinder3;whiteSpace=wrap;html=1;boundedLbl=1;backgroundOutline=1;size=3.250000000000057;" vertex="1" parent="hHPE4022j6eGi9Bg3FWy-366">
          <mxGeometry x="0.20999999999997954" y="3" width="19.79" height="10" as="geometry" />
        </mxCell>
        <mxCell id="hHPE4022j6eGi9Bg3FWy-374" value="" style="shape=cylinder3;whiteSpace=wrap;html=1;boundedLbl=1;backgroundOutline=1;size=3.250000000000057;" vertex="1" parent="hHPE4022j6eGi9Bg3FWy-366">
          <mxGeometry x="0.20999999999997954" width="19.79" height="10" as="geometry" />
        </mxCell>
        <mxCell id="hHPE4022j6eGi9Bg3FWy-375" value="" style="group" vertex="1" connectable="0" parent="hHPE4022j6eGi9Bg3FWy-365">
          <mxGeometry x="4.5" y="3" width="20" height="31" as="geometry" />
        </mxCell>
        <mxCell id="hHPE4022j6eGi9Bg3FWy-376" value="" style="shape=cylinder3;whiteSpace=wrap;html=1;boundedLbl=1;backgroundOutline=1;size=3.250000000000057;" vertex="1" parent="hHPE4022j6eGi9Bg3FWy-375">
          <mxGeometry x="0.20999999999997954" y="21" width="19.79" height="10" as="geometry" />
        </mxCell>
        <mxCell id="hHPE4022j6eGi9Bg3FWy-377" value="" style="shape=cylinder3;whiteSpace=wrap;html=1;boundedLbl=1;backgroundOutline=1;size=3.250000000000057;" vertex="1" parent="hHPE4022j6eGi9Bg3FWy-375">
          <mxGeometry x="0.20999999999997954" y="18" width="19.79" height="10" as="geometry" />
        </mxCell>
        <mxCell id="hHPE4022j6eGi9Bg3FWy-378" value="" style="shape=cylinder3;whiteSpace=wrap;html=1;boundedLbl=1;backgroundOutline=1;size=3.250000000000057;" vertex="1" parent="hHPE4022j6eGi9Bg3FWy-375">
          <mxGeometry x="0.20999999999997954" y="15" width="19.79" height="10" as="geometry" />
        </mxCell>
        <mxCell id="hHPE4022j6eGi9Bg3FWy-379" value="" style="shape=cylinder3;whiteSpace=wrap;html=1;boundedLbl=1;backgroundOutline=1;size=3.250000000000057;" vertex="1" parent="hHPE4022j6eGi9Bg3FWy-375">
          <mxGeometry y="12" width="19.79" height="10" as="geometry" />
        </mxCell>
        <mxCell id="hHPE4022j6eGi9Bg3FWy-380" value="" style="shape=cylinder3;whiteSpace=wrap;html=1;boundedLbl=1;backgroundOutline=1;size=3.250000000000057;" vertex="1" parent="hHPE4022j6eGi9Bg3FWy-375">
          <mxGeometry y="9" width="19.79" height="10" as="geometry" />
        </mxCell>
        <mxCell id="hHPE4022j6eGi9Bg3FWy-381" value="" style="shape=cylinder3;whiteSpace=wrap;html=1;boundedLbl=1;backgroundOutline=1;size=3.250000000000057;" vertex="1" parent="hHPE4022j6eGi9Bg3FWy-375">
          <mxGeometry x="0.20999999999997954" y="6" width="19.79" height="10" as="geometry" />
        </mxCell>
        <mxCell id="hHPE4022j6eGi9Bg3FWy-382" value="" style="shape=cylinder3;whiteSpace=wrap;html=1;boundedLbl=1;backgroundOutline=1;size=3.250000000000057;" vertex="1" parent="hHPE4022j6eGi9Bg3FWy-375">
          <mxGeometry x="0.20999999999997954" y="3" width="19.79" height="10" as="geometry" />
        </mxCell>
        <mxCell id="hHPE4022j6eGi9Bg3FWy-383" value="" style="shape=cylinder3;whiteSpace=wrap;html=1;boundedLbl=1;backgroundOutline=1;size=3.250000000000057;" vertex="1" parent="hHPE4022j6eGi9Bg3FWy-375">
          <mxGeometry x="0.20999999999997954" width="19.79" height="10" as="geometry" />
        </mxCell>
        <mxCell id="hHPE4022j6eGi9Bg3FWy-384" value="" style="group" vertex="1" connectable="0" parent="hHPE4022j6eGi9Bg3FWy-365">
          <mxGeometry x="9" y="6" width="20" height="31" as="geometry" />
        </mxCell>
        <mxCell id="hHPE4022j6eGi9Bg3FWy-385" value="" style="shape=cylinder3;whiteSpace=wrap;html=1;boundedLbl=1;backgroundOutline=1;size=3.250000000000057;" vertex="1" parent="hHPE4022j6eGi9Bg3FWy-384">
          <mxGeometry x="0.20999999999997954" y="21" width="19.79" height="10" as="geometry" />
        </mxCell>
        <mxCell id="hHPE4022j6eGi9Bg3FWy-386" value="" style="shape=cylinder3;whiteSpace=wrap;html=1;boundedLbl=1;backgroundOutline=1;size=3.250000000000057;" vertex="1" parent="hHPE4022j6eGi9Bg3FWy-384">
          <mxGeometry x="0.20999999999997954" y="18" width="19.79" height="10" as="geometry" />
        </mxCell>
        <mxCell id="hHPE4022j6eGi9Bg3FWy-387" value="" style="shape=cylinder3;whiteSpace=wrap;html=1;boundedLbl=1;backgroundOutline=1;size=3.250000000000057;" vertex="1" parent="hHPE4022j6eGi9Bg3FWy-384">
          <mxGeometry x="0.20999999999997954" y="15" width="19.79" height="10" as="geometry" />
        </mxCell>
        <mxCell id="hHPE4022j6eGi9Bg3FWy-388" value="" style="shape=cylinder3;whiteSpace=wrap;html=1;boundedLbl=1;backgroundOutline=1;size=3.250000000000057;" vertex="1" parent="hHPE4022j6eGi9Bg3FWy-384">
          <mxGeometry y="12" width="19.79" height="10" as="geometry" />
        </mxCell>
        <mxCell id="hHPE4022j6eGi9Bg3FWy-389" value="" style="shape=cylinder3;whiteSpace=wrap;html=1;boundedLbl=1;backgroundOutline=1;size=3.250000000000057;" vertex="1" parent="hHPE4022j6eGi9Bg3FWy-384">
          <mxGeometry y="9" width="19.79" height="10" as="geometry" />
        </mxCell>
        <mxCell id="hHPE4022j6eGi9Bg3FWy-390" value="" style="shape=cylinder3;whiteSpace=wrap;html=1;boundedLbl=1;backgroundOutline=1;size=3.250000000000057;" vertex="1" parent="hHPE4022j6eGi9Bg3FWy-384">
          <mxGeometry x="0.20999999999997954" y="6" width="19.79" height="10" as="geometry" />
        </mxCell>
        <mxCell id="hHPE4022j6eGi9Bg3FWy-391" value="" style="shape=cylinder3;whiteSpace=wrap;html=1;boundedLbl=1;backgroundOutline=1;size=3.250000000000057;" vertex="1" parent="hHPE4022j6eGi9Bg3FWy-384">
          <mxGeometry x="0.20999999999997954" y="3" width="19.79" height="10" as="geometry" />
        </mxCell>
        <mxCell id="hHPE4022j6eGi9Bg3FWy-392" value="" style="shape=cylinder3;whiteSpace=wrap;html=1;boundedLbl=1;backgroundOutline=1;size=3.250000000000057;" vertex="1" parent="hHPE4022j6eGi9Bg3FWy-384">
          <mxGeometry x="0.20999999999997954" width="19.79" height="10" as="geometry" />
        </mxCell>
        <mxCell id="hHPE4022j6eGi9Bg3FWy-393" value="" style="group" vertex="1" connectable="0" parent="hHPE4022j6eGi9Bg3FWy-365">
          <mxGeometry x="14" y="9" width="20" height="31" as="geometry" />
        </mxCell>
        <mxCell id="hHPE4022j6eGi9Bg3FWy-394" value="" style="shape=cylinder3;whiteSpace=wrap;html=1;boundedLbl=1;backgroundOutline=1;size=3.250000000000057;" vertex="1" parent="hHPE4022j6eGi9Bg3FWy-393">
          <mxGeometry x="0.20999999999997954" y="21" width="19.79" height="10" as="geometry" />
        </mxCell>
        <mxCell id="hHPE4022j6eGi9Bg3FWy-395" value="" style="shape=cylinder3;whiteSpace=wrap;html=1;boundedLbl=1;backgroundOutline=1;size=3.250000000000057;" vertex="1" parent="hHPE4022j6eGi9Bg3FWy-393">
          <mxGeometry x="0.20999999999997954" y="18" width="19.79" height="10" as="geometry" />
        </mxCell>
        <mxCell id="hHPE4022j6eGi9Bg3FWy-396" value="" style="shape=cylinder3;whiteSpace=wrap;html=1;boundedLbl=1;backgroundOutline=1;size=3.250000000000057;" vertex="1" parent="hHPE4022j6eGi9Bg3FWy-393">
          <mxGeometry x="0.20999999999997954" y="15" width="19.79" height="10" as="geometry" />
        </mxCell>
        <mxCell id="hHPE4022j6eGi9Bg3FWy-397" value="" style="shape=cylinder3;whiteSpace=wrap;html=1;boundedLbl=1;backgroundOutline=1;size=3.250000000000057;" vertex="1" parent="hHPE4022j6eGi9Bg3FWy-393">
          <mxGeometry y="12" width="19.79" height="10" as="geometry" />
        </mxCell>
        <mxCell id="hHPE4022j6eGi9Bg3FWy-398" value="" style="shape=cylinder3;whiteSpace=wrap;html=1;boundedLbl=1;backgroundOutline=1;size=3.250000000000057;" vertex="1" parent="hHPE4022j6eGi9Bg3FWy-393">
          <mxGeometry y="9" width="19.79" height="10" as="geometry" />
        </mxCell>
        <mxCell id="hHPE4022j6eGi9Bg3FWy-399" value="" style="shape=cylinder3;whiteSpace=wrap;html=1;boundedLbl=1;backgroundOutline=1;size=3.250000000000057;" vertex="1" parent="hHPE4022j6eGi9Bg3FWy-393">
          <mxGeometry x="0.20999999999997954" y="6" width="19.79" height="10" as="geometry" />
        </mxCell>
        <mxCell id="hHPE4022j6eGi9Bg3FWy-400" value="" style="shape=cylinder3;whiteSpace=wrap;html=1;boundedLbl=1;backgroundOutline=1;size=3.250000000000057;" vertex="1" parent="hHPE4022j6eGi9Bg3FWy-393">
          <mxGeometry x="0.20999999999997954" y="3" width="19.79" height="10" as="geometry" />
        </mxCell>
        <mxCell id="hHPE4022j6eGi9Bg3FWy-401" value="" style="shape=cylinder3;whiteSpace=wrap;html=1;boundedLbl=1;backgroundOutline=1;size=3.250000000000057;" vertex="1" parent="hHPE4022j6eGi9Bg3FWy-393">
          <mxGeometry x="0.20999999999997954" width="19.79" height="10" as="geometry" />
        </mxCell>
        <mxCell id="hHPE4022j6eGi9Bg3FWy-418" style="edgeStyle=orthogonalEdgeStyle;rounded=1;orthogonalLoop=1;jettySize=auto;html=1;exitX=0;exitY=0.75;exitDx=0;exitDy=0;entryX=1;entryY=0.5;entryDx=0;entryDy=0;arcSize=5;endArrow=classicThin;endFill=1;fillColor=#d80073;strokeColor=#A50040;" edge="1" parent="1" source="hHPE4022j6eGi9Bg3FWy-406" target="_4_Hz2iEFn8rfwyZPXuo-1">
          <mxGeometry relative="1" as="geometry" />
        </mxCell>
        <mxCell id="hHPE4022j6eGi9Bg3FWy-406" value="&lt;br&gt;&lt;font style=&quot;font-size: 8px;&quot;&gt;ETH&lt;br&gt;Holder&lt;/font&gt;" style="shape=actor;whiteSpace=wrap;html=1;fontSize=10;fontFamily=Times New Roman;verticalAlign=middle;rounded=0;" vertex="1" parent="1">
          <mxGeometry x="-600" y="37" width="35" height="40" as="geometry" />
        </mxCell>
        <mxCell id="hHPE4022j6eGi9Bg3FWy-421" style="edgeStyle=orthogonalEdgeStyle;rounded=0;orthogonalLoop=1;jettySize=auto;html=1;exitX=1;exitY=1;exitDx=0;exitDy=0;entryX=0.5;entryY=0;entryDx=0;entryDy=0;entryPerimeter=0;endArrow=classicThin;endFill=1;fillColor=#d80073;strokeColor=#A50040;" edge="1" parent="1" source="_4_Hz2iEFn8rfwyZPXuo-1" target="bI1gja82rUTGcYfUVD13-1">
          <mxGeometry relative="1" as="geometry">
            <Array as="points">
              <mxPoint x="-575" y="81" />
            </Array>
          </mxGeometry>
        </mxCell>
        <mxCell id="aXwNNv5AYdKiC4HSLwjV-178" value="" style="endArrow=classicThin;html=1;rounded=0;endFill=1;" parent="1" edge="1">
          <mxGeometry width="50" height="50" relative="1" as="geometry">
            <mxPoint x="-515" y="445" as="sourcePoint" />
            <mxPoint x="-455" y="445" as="targetPoint" />
          </mxGeometry>
        </mxCell>
        <mxCell id="aXwNNv5AYdKiC4HSLwjV-228" value="" style="endArrow=classicThin;html=1;rounded=0;endFill=1;fillColor=#6a00ff;strokeColor=#3700CC;" parent="1" edge="1">
          <mxGeometry width="50" height="50" relative="1" as="geometry">
            <mxPoint x="-585" y="445" as="sourcePoint" />
            <mxPoint x="-525" y="445" as="targetPoint" />
          </mxGeometry>
        </mxCell>
        <mxCell id="aXwNNv5AYdKiC4HSLwjV-229" value="&lt;font style=&quot;font-size: 8px;&quot;&gt;Provide Liquidity&lt;/font&gt;" style="text;html=1;strokeColor=none;fillColor=none;align=center;verticalAlign=middle;whiteSpace=wrap;rounded=0;" parent="1" vertex="1">
          <mxGeometry x="-590" y="420" width="80" height="30" as="geometry" />
        </mxCell>
        <mxCell id="aXwNNv5AYdKiC4HSLwjV-180" value="&lt;font style=&quot;font-size: 8px;&quot;&gt;Swap&lt;/font&gt;" style="text;html=1;strokeColor=none;fillColor=none;align=center;verticalAlign=middle;whiteSpace=wrap;rounded=0;" parent="1" vertex="1">
          <mxGeometry x="-525" y="420" width="80" height="30" as="geometry" />
        </mxCell>
        <mxCell id="aXwNNv5AYdKiC4HSLwjV-234" value="" style="group;fontSize=8;" parent="1" vertex="1" connectable="0">
          <mxGeometry x="-730" y="420" width="80" height="30" as="geometry" />
        </mxCell>
        <mxCell id="aXwNNv5AYdKiC4HSLwjV-235" value="" style="endArrow=classicThin;html=1;rounded=0;endFill=1;fillColor=#008a00;strokeColor=#005700;" parent="aXwNNv5AYdKiC4HSLwjV-234" edge="1">
          <mxGeometry width="50" height="50" relative="1" as="geometry">
            <mxPoint x="10" y="24" as="sourcePoint" />
            <mxPoint x="70" y="24" as="targetPoint" />
          </mxGeometry>
        </mxCell>
        <mxCell id="aXwNNv5AYdKiC4HSLwjV-236" value="&lt;span style=&quot;font-size: 8px;&quot;&gt;Receive Receipt&lt;/span&gt;" style="text;html=1;strokeColor=none;fillColor=none;align=center;verticalAlign=middle;whiteSpace=wrap;rounded=0;" parent="aXwNNv5AYdKiC4HSLwjV-234" vertex="1">
          <mxGeometry width="80" height="30" as="geometry" />
        </mxCell>
        <mxCell id="aXwNNv5AYdKiC4HSLwjV-238" value="" style="endArrow=classicThin;html=1;rounded=0;endFill=1;fillColor=#1ba1e2;strokeColor=#006EAF;" parent="1" edge="1">
          <mxGeometry width="50" height="50" relative="1" as="geometry">
            <mxPoint x="-650" y="445" as="sourcePoint" />
            <mxPoint x="-590" y="445" as="targetPoint" />
          </mxGeometry>
        </mxCell>
        <mxCell id="aXwNNv5AYdKiC4HSLwjV-239" value="&lt;span style=&quot;font-size: 8px;&quot;&gt;Borrow&lt;/span&gt;" style="text;html=1;strokeColor=none;fillColor=none;align=center;verticalAlign=middle;whiteSpace=wrap;rounded=0;" parent="1" vertex="1">
          <mxGeometry x="-652.5" y="425" width="65" height="20" as="geometry" />
        </mxCell>
        <mxCell id="hHPE4022j6eGi9Bg3FWy-426" style="edgeStyle=orthogonalEdgeStyle;rounded=1;orthogonalLoop=1;jettySize=auto;html=1;exitX=1;exitY=0.5;exitDx=0;exitDy=0;exitPerimeter=0;entryX=0.25;entryY=0.2;entryDx=0;entryDy=0;entryPerimeter=0;endArrow=classicThin;endFill=1;arcSize=5;fillColor=#d80073;strokeColor=#A50040;" edge="1" parent="1" source="bI1gja82rUTGcYfUVD13-1" target="hHPE4022j6eGi9Bg3FWy-130">
          <mxGeometry relative="1" as="geometry">
            <Array as="points">
              <mxPoint x="-525" y="110" />
              <mxPoint x="-525" y="368" />
            </Array>
          </mxGeometry>
        </mxCell>
        <mxCell id="hHPE4022j6eGi9Bg3FWy-427" style="edgeStyle=orthogonalEdgeStyle;rounded=0;orthogonalLoop=1;jettySize=auto;html=1;exitX=1;exitY=0.75;exitDx=0;exitDy=0;entryX=0;entryY=1;entryDx=0;entryDy=-3.250000000000057;entryPerimeter=0;fillColor=#d80073;strokeColor=#A50040;endArrow=classicThin;endFill=1;" edge="1" parent="1" source="hHPE4022j6eGi9Bg3FWy-406" target="hHPE4022j6eGi9Bg3FWy-372">
          <mxGeometry relative="1" as="geometry" />
        </mxCell>
        <mxCell id="hHPE4022j6eGi9Bg3FWy-429" style="edgeStyle=orthogonalEdgeStyle;rounded=1;orthogonalLoop=1;jettySize=auto;html=1;exitX=1;exitY=0;exitDx=0;exitDy=3.250000000000057;exitPerimeter=0;endArrow=classicThin;endFill=1;fillColor=#d80073;strokeColor=#A50040;arcSize=5;" edge="1" parent="1" source="hHPE4022j6eGi9Bg3FWy-401" target="hHPE4022j6eGi9Bg3FWy-134">
          <mxGeometry relative="1" as="geometry">
            <Array as="points">
              <mxPoint x="-485" y="66" />
            </Array>
          </mxGeometry>
        </mxCell>
        <mxCell id="hHPE4022j6eGi9Bg3FWy-433" value="DeFi" style="text;html=1;strokeColor=none;fillColor=default;align=center;verticalAlign=middle;whiteSpace=wrap;rounded=0;" vertex="1" parent="1">
          <mxGeometry x="-790" y="34" width="30" height="20" as="geometry" />
        </mxCell>
        <mxCell id="hHPE4022j6eGi9Bg3FWy-434" value="PoS" style="text;html=1;strokeColor=none;fillColor=default;align=center;verticalAlign=middle;whiteSpace=wrap;rounded=0;" vertex="1" parent="1">
          <mxGeometry x="-500" y="34" width="30" height="20" as="geometry" />
        </mxCell>
      </root>
    </mxGraphModel>
  </diagram>
</mxfile>
